# xmcd
#
# Track frame offsets:
#	150
#	22083
#	44765
#	66917
#	90651
#	108051
#	129226
#	177106
#	213449
#	224664
#	256761
#	286531
#
# Disc length: 4107 seconds
#
# Revision: 0
# Processed by: cddbd v1.4PL0 Copyright (c) Steve Scherf et al.
# Submitted via: dBpowerAMP V4.0
#
DISCID=aa10090c
DTITLE=L - Legendarios
DYEAR=1900
DGENRE=Blues
TTITLE0=Jingo
TTITLE1=El corazón manda
TTITLE2=Soul sacrifice
TTITLE3=Persuasión
TTITLE4=As the years go by
TTITLE5=Latin tropical
TTITLE6=Fried neckbones and home fries
TTITLE7=Hot tamales
TTITLE8=Acapulco sunrise
TTITLE9=Every day I have the blues
TTITLE10=Let´s get ourselves together
TTITLE11=Travelin´ blues
EXTD=Licenciado por San Juan Music Group\nEdita y distribuye Creativos Independientes
EXTT0=
EXTT1=
EXTT2=
EXTT3=
EXTT4=
EXTT5=
EXTT6=
EXTT7=
EXTT8=
EXTT9=
EXTT10=
EXTT11=
PLAYORDER=
